<svg width="1061" height="281" viewBox="0 0 1061 281" fill="none" xmlns="http://www.w3.org/2000/svg">
<rect width="1061" height="281" fill="url(#paint0_linear_8537_21819)"/>
<path d="M195.301 154.199C195.104 153.723 195.002 153.213 195 152.698V64.0932C194.999 63.5555 195.105 63.0229 195.311 62.526C195.516 62.029 195.818 61.5775 196.199 61.1973C196.58 60.817 197.032 60.5156 197.529 60.3101C198.027 60.1047 198.56 59.9993 199.099 60H231.26C232.347 60.0031 233.388 60.4347 234.157 61.2007L262.438 89.4439C262.82 89.8233 263.122 90.2742 263.328 90.7705C263.535 91.2669 263.641 91.799 263.641 92.3364C263.641 92.8739 263.535 93.406 263.328 93.9024C263.122 94.3987 262.82 94.8495 262.438 95.229L201.995 155.59C201.512 156.063 200.92 156.409 200.272 156.598C199.623 156.788 198.938 156.815 198.276 156.678C197.615 156.54 196.997 156.242 196.478 155.81C195.959 155.377 195.555 154.824 195.301 154.199Z" fill="#4A6EBF"/>
<path d="M356.218 64.0932V96.2114C356.203 96.7426 356.101 97.2678 355.918 97.7668C355.701 98.2637 355.396 98.7169 355.016 99.1039L326.734 127.347C325.963 128.109 324.923 128.536 323.838 128.536C322.753 128.536 321.713 128.109 320.941 127.347L260.498 66.9858C260.03 66.5047 259.685 65.9169 259.495 65.2732C259.305 64.6294 259.274 63.9491 259.406 63.291C259.538 62.6329 259.828 62.0166 260.252 61.4956C260.675 60.9745 261.22 60.5642 261.837 60.3002C262.337 60.1163 262.863 60.0149 263.395 60H352.119C352.658 59.9993 353.191 60.1047 353.689 60.3101C354.186 60.5156 354.639 60.817 355.019 61.1973C355.4 61.5775 355.702 62.029 355.908 62.526C356.113 63.0229 356.219 63.5555 356.218 64.0932Z" fill="#4A6EBF"/>
<path d="M355.918 126.801C356.114 127.277 356.216 127.787 356.218 128.302V216.907C356.219 217.444 356.113 217.977 355.908 218.474C355.702 218.971 355.4 219.422 355.019 219.803C354.639 220.183 354.187 220.484 353.689 220.69C353.191 220.895 352.658 221.001 352.12 221H319.958C318.872 220.997 317.831 220.565 317.061 219.799L288.78 191.556C288.399 191.177 288.096 190.726 287.89 190.229C287.684 189.733 287.578 189.201 287.578 188.664C287.578 188.126 287.684 187.594 287.89 187.098C288.096 186.601 288.399 186.15 288.78 185.771L349.223 125.41C349.706 124.937 350.298 124.591 350.946 124.402C351.595 124.212 352.28 124.185 352.942 124.322C353.604 124.46 354.221 124.758 354.74 125.19C355.259 125.623 355.664 126.176 355.918 126.801Z" fill="#4A6EBF"/>
<path d="M240.551 137.607L272.713 105.489C273.484 104.729 274.525 104.302 275.609 104.302C276.693 104.302 277.734 104.729 278.506 105.489L310.667 137.607C311.429 138.378 311.856 139.417 311.856 140.5C311.856 141.583 311.429 142.622 310.667 143.392L278.506 175.511C277.731 176.265 276.691 176.687 275.609 176.687C274.527 176.687 273.488 176.265 272.713 175.511L240.551 143.392C239.789 142.622 239.362 141.583 239.362 140.5C239.362 139.417 239.789 138.378 240.551 137.607Z" fill="#4A6EBF"/>
<path d="M291.622 215.406C291.862 216.026 291.948 216.694 291.872 217.354C291.797 218.014 291.563 218.646 291.189 219.196C290.816 219.746 290.315 220.197 289.729 220.512C289.142 220.826 288.489 220.993 287.823 221H199.099C198.56 221.001 198.027 220.895 197.529 220.69C197.032 220.485 196.58 220.183 196.199 219.803C195.818 219.423 195.516 218.971 195.311 218.474C195.105 217.977 194.999 217.445 195 216.907V184.789C195.016 184.257 195.117 183.732 195.301 183.233C195.517 182.736 195.823 182.283 196.202 181.896L224.484 153.653C225.268 152.917 226.304 152.507 227.38 152.507C228.457 152.507 229.493 152.917 230.277 153.653L290.72 214.014C291.127 214.4 291.436 214.877 291.622 215.406Z" fill="#4A6EBF"/>
<path d="M467.373 195.008H402.05V101.959H415.664V181.412H467.373V195.008ZM514.46 142.871C520.039 137.05 525.077 130.564 529.573 123.413C534.069 116.261 537.65 109.11 540.314 101.959H555.927C551.68 111.854 546.518 121.334 540.439 130.398C534.944 138.63 528.532 146.737 521.205 154.72V195.008H507.716V154.72C500.388 146.737 493.977 138.63 488.481 130.398C482.403 121.334 477.24 111.854 472.993 101.959H488.606C491.27 109.11 494.851 116.261 499.347 123.413C503.844 130.564 508.881 137.05 514.46 142.871ZM652.599 113.933L643.856 124.161C640.442 120.669 636.362 117.925 631.616 115.929C626.87 113.933 621.874 112.935 616.628 112.935C609.8 112.935 603.576 114.474 597.956 117.55C592.335 120.627 587.943 124.826 584.779 130.148C581.531 135.719 579.908 141.914 579.908 148.733C579.908 155.219 581.656 161.206 585.153 166.694C588.484 171.85 592.96 175.945 598.58 178.98C604.2 182.015 610.258 183.533 616.753 183.533C621.333 183.533 625.725 182.743 629.93 181.163C634.135 179.583 637.903 177.379 641.233 174.552V157.589H629.243L623.373 144.118H654.722V180.29C649.976 185.612 644.293 189.749 637.674 192.701C631.054 195.652 624.039 197.128 616.628 197.128C607.385 197.128 598.892 194.883 591.148 190.393C583.571 186.069 577.618 180.124 573.288 172.557C568.791 164.823 566.543 156.342 566.543 147.111C566.543 138.214 568.916 130.023 573.663 122.54C578.159 115.388 584.258 109.713 591.96 105.514C599.662 101.315 607.927 99.215 616.753 99.215C623.664 99.215 630.242 100.545 636.487 103.206C642.566 105.701 647.936 109.277 652.599 113.933ZM758.389 147.86C758.389 141.208 756.682 135.179 753.268 129.774C750.021 124.535 745.587 120.419 739.966 117.426C734.346 114.432 728.247 112.935 721.669 112.935C714.841 112.935 708.617 114.474 702.996 117.55C697.376 120.627 692.983 124.826 689.819 130.148C686.572 135.719 684.948 141.914 684.948 148.733C684.948 155.219 686.697 161.206 690.194 166.694C693.525 171.85 698 175.945 703.621 178.98C709.241 182.015 715.32 183.533 721.856 183.533C728.392 183.533 734.471 181.953 740.091 178.793C745.712 175.633 750.146 171.392 753.393 166.071C756.724 160.499 758.389 154.429 758.389 147.86ZM771.878 148.608C771.878 157.589 769.547 165.863 764.884 173.43C760.387 180.664 754.288 186.422 746.586 190.705C738.884 194.987 730.578 197.128 721.669 197.128C712.426 197.128 703.933 194.883 696.189 190.393C688.612 186.069 682.658 180.124 678.328 172.557C673.832 164.823 671.584 156.342 671.584 147.111C671.584 138.214 673.957 130.023 678.703 122.54C683.2 115.388 689.299 109.713 697.001 105.514C704.703 101.315 712.967 99.215 721.794 99.215C730.87 99.215 739.279 101.419 747.023 105.826C754.6 110.15 760.596 116.012 765.009 123.413C769.588 131.146 771.878 139.545 771.878 148.608ZM865.553 166.694C865.553 172.764 863.721 178.169 860.057 182.909C856.477 187.399 851.543 190.892 845.257 193.387C838.97 195.881 831.872 197.128 823.961 197.128C816.717 197.128 809.681 195.445 802.853 192.077C796.026 188.709 790.28 184.032 785.617 178.045L795.359 168.939C803.436 178.668 812.97 183.533 823.961 183.533C828.791 183.533 833.204 182.951 837.201 181.787C841.614 180.456 845.028 178.585 847.443 176.174C850.19 173.513 851.564 170.353 851.564 166.694C851.564 162.287 850.19 158.961 847.443 156.716C845.111 154.803 841.656 153.556 837.076 152.974C834.411 152.641 830.04 152.475 823.961 152.475C812.804 152.475 804.29 150.438 798.419 146.363C792.549 142.289 789.614 136.302 789.614 128.402C789.614 123.413 791.092 118.673 794.048 114.183C797.004 109.692 801.063 106.117 806.226 103.456C811.555 100.629 817.467 99.215 823.961 99.215C831.289 99.215 837.909 100.338 843.82 102.583C850.149 104.994 856.019 108.778 861.431 113.933L852.938 123.912C847.859 119.837 843.238 116.989 839.074 115.368C834.911 113.746 829.873 112.935 823.961 112.935C820.548 112.935 817.363 113.642 814.407 115.056C811.451 116.469 809.098 118.361 807.35 120.731C805.601 123.101 804.727 125.616 804.727 128.277C804.727 135.428 811.347 139.004 824.586 139.004C835.161 139.004 843.529 140.085 849.691 142.247C855.519 144.326 859.683 147.486 862.181 151.727C864.429 155.468 865.553 160.458 865.553 166.694Z" fill="#FCFCFE"/>
<path d="M195.301 154.199C195.104 153.723 195.002 153.213 195 152.698V64.0932C194.999 63.5555 195.105 63.0229 195.311 62.526C195.516 62.029 195.818 61.5775 196.199 61.1973C196.58 60.817 197.032 60.5156 197.529 60.3101C198.027 60.1047 198.56 59.9993 199.099 60H231.26C232.347 60.0031 233.388 60.4347 234.157 61.2007L262.438 89.4439C262.82 89.8233 263.122 90.2742 263.328 90.7705C263.535 91.2669 263.641 91.799 263.641 92.3364C263.641 92.8739 263.535 93.406 263.328 93.9024C263.122 94.3987 262.82 94.8495 262.438 95.229L201.995 155.59C201.512 156.063 200.92 156.409 200.272 156.598C199.623 156.788 198.938 156.815 198.276 156.678C197.615 156.54 196.997 156.242 196.478 155.81C195.959 155.377 195.555 154.824 195.301 154.199Z" fill="white"/>
<path d="M356.218 64.0932V96.2114C356.203 96.7426 356.101 97.2678 355.918 97.7668C355.701 98.2637 355.396 98.7169 355.016 99.1039L326.734 127.347C325.963 128.109 324.923 128.536 323.838 128.536C322.753 128.536 321.713 128.109 320.941 127.347L260.498 66.9858C260.03 66.5047 259.685 65.9169 259.495 65.2732C259.305 64.6294 259.274 63.9491 259.406 63.291C259.538 62.6329 259.828 62.0166 260.252 61.4956C260.675 60.9745 261.22 60.5642 261.837 60.3002C262.337 60.1163 262.863 60.0149 263.395 60H352.119C352.658 59.9993 353.191 60.1047 353.689 60.3101C354.186 60.5156 354.639 60.817 355.019 61.1973C355.4 61.5775 355.702 62.029 355.908 62.526C356.113 63.0229 356.219 63.5555 356.218 64.0932Z" fill="white"/>
<path d="M355.918 126.801C356.114 127.277 356.216 127.787 356.218 128.302V216.907C356.219 217.444 356.113 217.977 355.908 218.474C355.702 218.971 355.4 219.422 355.019 219.803C354.639 220.183 354.187 220.484 353.689 220.69C353.191 220.895 352.658 221.001 352.12 221H319.958C318.872 220.997 317.831 220.565 317.061 219.799L288.78 191.556C288.399 191.177 288.096 190.726 287.89 190.229C287.684 189.733 287.578 189.201 287.578 188.664C287.578 188.126 287.684 187.594 287.89 187.098C288.096 186.601 288.399 186.15 288.78 185.771L349.223 125.41C349.706 124.937 350.298 124.591 350.946 124.402C351.595 124.212 352.28 124.185 352.942 124.322C353.604 124.46 354.221 124.758 354.74 125.19C355.259 125.623 355.664 126.176 355.918 126.801Z" fill="white"/>
<path d="M240.551 137.607L272.713 105.489C273.484 104.729 274.525 104.302 275.609 104.302C276.693 104.302 277.734 104.729 278.506 105.489L310.667 137.607C311.429 138.378 311.856 139.417 311.856 140.5C311.856 141.583 311.429 142.622 310.667 143.392L278.506 175.511C277.731 176.265 276.691 176.687 275.609 176.687C274.527 176.687 273.488 176.265 272.713 175.511L240.551 143.392C239.789 142.622 239.362 141.583 239.362 140.5C239.362 139.417 239.789 138.378 240.551 137.607Z" fill="white"/>
<path d="M291.622 215.406C291.862 216.026 291.948 216.694 291.872 217.354C291.797 218.014 291.563 218.646 291.189 219.196C290.816 219.746 290.315 220.197 289.729 220.512C289.142 220.826 288.489 220.993 287.823 221H199.099C198.56 221.001 198.027 220.895 197.529 220.69C197.032 220.485 196.58 220.183 196.199 219.803C195.818 219.423 195.516 218.971 195.311 218.474C195.105 217.977 194.999 217.445 195 216.907V184.789C195.016 184.257 195.117 183.732 195.301 183.233C195.517 182.736 195.823 182.283 196.202 181.896L224.484 153.653C225.268 152.917 226.304 152.507 227.38 152.507C228.457 152.507 229.493 152.917 230.277 153.653L290.72 214.014C291.127 214.4 291.436 214.877 291.622 215.406Z" fill="white"/>
<path d="M467.373 195.008H402.05V101.959H415.664V181.412H467.373V195.008ZM514.46 142.871C520.039 137.05 525.077 130.564 529.573 123.413C534.069 116.261 537.65 109.11 540.314 101.959H555.927C551.68 111.854 546.518 121.334 540.439 130.398C534.944 138.63 528.532 146.737 521.205 154.72V195.008H507.716V154.72C500.388 146.737 493.977 138.63 488.481 130.398C482.403 121.334 477.24 111.854 472.993 101.959H488.606C491.27 109.11 494.851 116.261 499.347 123.413C503.844 130.564 508.881 137.05 514.46 142.871ZM652.599 113.933L643.856 124.161C640.442 120.669 636.362 117.925 631.616 115.929C626.87 113.933 621.874 112.935 616.628 112.935C609.8 112.935 603.576 114.474 597.956 117.55C592.335 120.627 587.943 124.826 584.779 130.148C581.531 135.719 579.908 141.914 579.908 148.733C579.908 155.219 581.656 161.206 585.153 166.694C588.484 171.85 592.96 175.945 598.58 178.98C604.2 182.015 610.258 183.533 616.753 183.533C621.333 183.533 625.725 182.743 629.93 181.163C634.135 179.583 637.903 177.379 641.233 174.552V157.589H629.243L623.373 144.118H654.722V180.29C649.976 185.612 644.293 189.749 637.674 192.701C631.054 195.652 624.039 197.128 616.628 197.128C607.385 197.128 598.892 194.883 591.148 190.393C583.571 186.069 577.618 180.124 573.288 172.557C568.791 164.823 566.543 156.342 566.543 147.111C566.543 138.214 568.916 130.023 573.663 122.54C578.159 115.388 584.258 109.713 591.96 105.514C599.662 101.315 607.927 99.215 616.753 99.215C623.664 99.215 630.242 100.545 636.487 103.206C642.566 105.701 647.936 109.277 652.599 113.933ZM758.389 147.86C758.389 141.208 756.682 135.179 753.268 129.774C750.021 124.535 745.587 120.419 739.966 117.426C734.346 114.432 728.247 112.935 721.669 112.935C714.841 112.935 708.617 114.474 702.996 117.55C697.376 120.627 692.983 124.826 689.819 130.148C686.572 135.719 684.948 141.914 684.948 148.733C684.948 155.219 686.697 161.206 690.194 166.694C693.525 171.85 698 175.945 703.621 178.98C709.241 182.015 715.32 183.533 721.856 183.533C728.392 183.533 734.471 181.953 740.091 178.793C745.712 175.633 750.146 171.392 753.393 166.071C756.724 160.499 758.389 154.429 758.389 147.86ZM771.878 148.608C771.878 157.589 769.547 165.863 764.884 173.43C760.387 180.664 754.288 186.422 746.586 190.705C738.884 194.987 730.578 197.128 721.669 197.128C712.426 197.128 703.933 194.883 696.189 190.393C688.612 186.069 682.658 180.124 678.328 172.557C673.832 164.823 671.584 156.342 671.584 147.111C671.584 138.214 673.957 130.023 678.703 122.54C683.2 115.388 689.299 109.713 697.001 105.514C704.703 101.315 712.967 99.215 721.794 99.215C730.87 99.215 739.279 101.419 747.023 105.826C754.6 110.15 760.596 116.012 765.009 123.413C769.588 131.146 771.878 139.545 771.878 148.608ZM865.553 166.694C865.553 172.764 863.721 178.169 860.057 182.909C856.477 187.399 851.543 190.892 845.257 193.387C838.97 195.881 831.872 197.128 823.961 197.128C816.717 197.128 809.681 195.445 802.853 192.077C796.026 188.709 790.28 184.032 785.617 178.045L795.359 168.939C803.436 178.668 812.97 183.533 823.961 183.533C828.791 183.533 833.204 182.951 837.201 181.787C841.614 180.456 845.028 178.585 847.443 176.174C850.19 173.513 851.564 170.353 851.564 166.694C851.564 162.287 850.19 158.961 847.443 156.716C845.111 154.803 841.656 153.556 837.076 152.974C834.411 152.641 830.04 152.475 823.961 152.475C812.804 152.475 804.29 150.438 798.419 146.363C792.549 142.289 789.614 136.302 789.614 128.402C789.614 123.413 791.092 118.673 794.048 114.183C797.004 109.692 801.063 106.117 806.226 103.456C811.555 100.629 817.467 99.215 823.961 99.215C831.289 99.215 837.909 100.338 843.82 102.583C850.149 104.994 856.019 108.778 861.431 113.933L852.938 123.912C847.859 119.837 843.238 116.989 839.074 115.368C834.911 113.746 829.873 112.935 823.961 112.935C820.548 112.935 817.363 113.642 814.407 115.056C811.451 116.469 809.098 118.361 807.35 120.731C805.601 123.101 804.727 125.616 804.727 128.277C804.727 135.428 811.347 139.004 824.586 139.004C835.161 139.004 843.529 140.085 849.691 142.247C855.519 144.326 859.683 147.486 862.181 151.727C864.429 155.468 865.553 160.458 865.553 166.694Z" fill="white"/>
<defs>
<linearGradient id="paint0_linear_8537_21819" x1="0" y1="0" x2="1060.83" y2="281.638" gradientUnits="userSpaceOnUse">
<stop stop-color="#00ACC1"/>
<stop offset="1" stop-color="#4A6EBF"/>
</linearGradient>
</defs>
</svg>
