<svg width="241" height="58" viewBox="0 0 241 58" fill="none" xmlns="http://www.w3.org/2000/svg">
<path d="M0.107677 33.7447C0.0372912 33.5742 0.000723496 33.3916 1.30876e-06 33.2071V1.46631C-0.000256397 1.27368 0.0375465 1.08289 0.111244 0.904876C0.184942 0.726858 0.293086 0.565111 0.429482 0.4289C0.565877 0.292689 0.727844 0.184692 0.906102 0.111094C1.08436 0.0374957 1.27541 -0.00025605 1.4683 1.30699e-06H12.9896C13.3787 0.00112025 13.7516 0.155713 14.0272 0.43012L24.1584 10.5477C24.295 10.6836 24.4033 10.8451 24.4772 11.0229C24.5511 11.2007 24.5891 11.3913 24.5891 11.5839C24.5891 11.7764 24.5511 11.967 24.4772 12.1448C24.4033 12.3226 24.295 12.4841 24.1584 12.6201L2.5059 34.2433C2.33291 34.4124 2.12088 34.5364 1.88853 34.6044C1.65618 34.6723 1.41066 34.6821 1.17363 34.6328C0.936607 34.5835 0.715376 34.4767 0.52947 34.3219C0.343565 34.167 0.198704 33.9688 0.107677 33.7447Z" fill="#4A6EBF"/>
<path d="M57.7531 1.46631V12.972C57.7475 13.1623 57.7112 13.3504 57.6455 13.5292C57.568 13.7072 57.4585 13.8695 57.3224 14.0082L47.1912 24.1257C46.915 24.3986 46.5421 24.5517 46.1536 24.5517C45.765 24.5517 45.3922 24.3986 45.116 24.1257L23.4634 2.50251C23.2956 2.33016 23.1722 2.1196 23.104 1.889C23.0359 1.6584 23.0249 1.4147 23.0722 1.17893C23.1194 0.943167 23.2234 0.722422 23.3751 0.535759C23.5269 0.349096 23.7218 0.202123 23.9432 0.107531C24.1221 0.0416609 24.3105 0.00534195 24.5011 1.30699e-06H56.2848C56.4777 -0.00025605 56.6688 0.0374957 56.847 0.111094C57.0253 0.184692 57.1873 0.292689 57.3237 0.4289C57.4601 0.565111 57.5682 0.726858 57.6419 0.904876C57.7156 1.08289 57.7534 1.27368 57.7531 1.46631Z" fill="#4A6EBF"/>
<path d="M57.6455 23.9302C57.7159 24.1008 57.7524 24.2833 57.7531 24.4678V56.2086C57.7534 56.4012 57.7156 56.592 57.6419 56.77C57.5682 56.9481 57.4601 57.1098 57.3237 57.246C57.1873 57.3822 57.0253 57.4902 56.847 57.5638C56.6688 57.6374 56.4777 57.6752 56.2848 57.6749H44.7636C44.3745 57.6738 44.0015 57.5192 43.726 57.2448L33.5947 47.1272C33.4582 46.9913 33.3499 46.8298 33.276 46.652C33.202 46.4742 33.164 46.2836 33.164 46.091C33.164 45.8985 33.202 45.7079 33.276 45.5301C33.3499 45.3523 33.4582 45.1908 33.5947 45.0548L55.2472 23.4316C55.4202 23.2625 55.6323 23.1385 55.8646 23.0706C56.097 23.0026 56.3425 22.9929 56.5795 23.0421C56.8165 23.0914 57.0378 23.1982 57.2237 23.3531C57.4096 23.508 57.5544 23.7062 57.6455 23.9302Z" fill="#4A6EBF"/>
<path d="M16.3177 27.8013L27.8389 16.2956C28.1154 16.0231 28.4882 15.8704 28.8765 15.8704C29.2649 15.8704 29.6377 16.0231 29.9141 16.2956L41.4354 27.8013C41.7082 28.0773 41.8612 28.4496 41.8612 28.8374C41.8612 29.2253 41.7082 29.5976 41.4354 29.8736L29.9141 41.3793C29.6365 41.6495 29.2642 41.8007 28.8765 41.8007C28.4889 41.8007 28.1166 41.6495 27.8389 41.3793L16.3177 29.8736C16.0449 29.5976 15.8919 29.2253 15.8919 28.8374C15.8919 28.4496 16.0449 28.0773 16.3177 27.8013Z" fill="#4A6EBF"/>
<path d="M34.6127 55.671C34.6987 55.893 34.7295 56.1324 34.7025 56.3689C34.6756 56.6054 34.5916 56.8318 34.4579 57.0288C34.3241 57.2258 34.1446 57.3875 33.9346 57.5C33.7246 57.6125 33.4904 57.6726 33.2521 57.675H1.4683C1.27541 57.6752 1.08436 57.6375 0.906102 57.5639C0.727844 57.4903 0.565877 57.3823 0.429482 57.2461C0.293086 57.1099 0.184942 56.9481 0.111244 56.7701C0.0375465 56.5921 -0.000256397 56.4013 1.30876e-06 56.2086V44.703C0.0056448 44.5127 0.0420039 44.3245 0.107677 44.1458C0.185174 43.9678 0.294655 43.8054 0.430703 43.6668L10.562 33.5492C10.8429 33.2855 11.214 33.1387 11.5996 33.1387C11.9852 33.1387 12.3562 33.2855 12.6372 33.5492L34.2897 55.1725C34.4356 55.3106 34.5463 55.4815 34.6127 55.671Z" fill="#4A6EBF"/>
<path d="M97.572 48.3639H74.1715V15.031H79.0485V43.4935H97.572V48.3639ZM114.44 29.6867C116.438 27.6016 118.243 25.2781 119.854 22.7163C121.465 20.1545 122.747 17.5928 123.702 15.031H129.295C127.773 18.5758 125.924 21.9716 123.746 25.2185C121.778 28.1675 119.481 31.0719 116.856 33.9315V48.3639H112.024V33.9315C109.399 31.0719 107.102 28.1675 105.133 25.2185C102.956 21.9716 101.107 18.5758 99.5854 15.031H105.178C106.133 17.5928 107.415 20.1545 109.026 22.7163C110.637 25.2781 112.441 27.6016 114.44 29.6867ZM163.925 19.3205L160.793 22.9844C159.57 21.7333 158.109 20.7503 156.409 20.0354C154.708 19.3205 152.919 18.963 151.04 18.963C148.594 18.963 146.364 19.5141 144.35 20.6162C142.337 21.7184 140.764 23.2227 139.63 25.1291C138.467 27.125 137.885 29.3442 137.885 31.7868C137.885 34.1103 138.512 36.255 139.764 38.221C140.957 40.0679 142.561 41.5349 144.574 42.6222C146.588 43.7095 148.758 44.2531 151.084 44.2531C152.725 44.2531 154.298 43.9701 155.805 43.4041C157.311 42.8382 158.661 42.0488 159.854 41.036V34.9592H155.559L153.456 30.1335H164.686V43.0914C162.986 44.9978 160.95 46.4798 158.579 47.5372C156.207 48.5947 153.694 49.1235 151.04 49.1235C147.729 49.1235 144.686 48.3192 141.912 46.7106C139.198 45.1616 137.065 43.0318 135.514 40.3211C133.903 37.5508 133.098 34.5124 133.098 31.2059C133.098 28.0186 133.948 25.0845 135.648 22.4035C137.259 19.8418 139.444 17.8087 142.203 16.3044C144.962 14.8001 147.922 14.048 151.084 14.048C153.56 14.048 155.916 14.5246 158.154 15.4778C160.331 16.3714 162.255 17.6523 163.925 19.3205ZM201.823 31.474C201.823 29.091 201.211 26.9313 199.988 24.9951C198.825 23.1185 197.236 21.6439 195.223 20.5716C193.21 19.4992 191.025 18.963 188.668 18.963C186.222 18.963 183.993 19.5141 181.979 20.6162C179.966 21.7184 178.392 23.2227 177.259 25.1291C176.095 27.125 175.514 29.3442 175.514 31.7868C175.514 34.1103 176.14 36.255 177.393 38.221C178.586 40.0679 180.189 41.5349 182.203 42.6222C184.216 43.7095 186.394 44.2531 188.735 44.2531C191.077 44.2531 193.254 43.6871 195.268 42.5552C197.281 41.4232 198.869 39.904 200.033 37.9976C201.226 36.0018 201.823 33.8273 201.823 31.474ZM206.655 31.7421C206.655 34.9592 205.82 37.9231 204.149 40.6339C202.538 43.2254 200.353 45.2882 197.594 46.8223C194.835 48.3564 191.86 49.1235 188.668 49.1235C185.357 49.1235 182.315 48.3192 179.541 46.7106C176.826 45.1616 174.693 43.0318 173.142 40.3211C171.532 37.5508 170.726 34.5124 170.726 31.2059C170.726 28.0186 171.576 25.0845 173.277 22.4035C174.887 19.8418 177.072 17.8087 179.831 16.3044C182.591 14.8001 185.551 14.048 188.713 14.048C191.964 14.048 194.977 14.8374 197.751 16.4161C200.465 17.9651 202.613 20.0652 204.194 22.7163C205.834 25.4866 206.655 28.4952 206.655 31.7421ZM240.212 38.221C240.212 40.3955 239.556 42.3318 238.243 44.0297C236.96 45.6383 235.193 46.8894 232.941 47.783C230.689 48.6766 228.146 49.1235 225.312 49.1235C222.717 49.1235 220.197 48.5203 217.751 47.3138C215.305 46.1074 213.247 44.4318 211.576 42.2871L215.066 39.0253C217.96 42.5105 221.375 44.2531 225.312 44.2531C227.043 44.2531 228.623 44.0446 230.055 43.6276C231.636 43.1509 232.859 42.4807 233.724 41.6169C234.708 40.6636 235.201 39.5317 235.201 38.221C235.201 36.6422 234.708 35.4507 233.724 34.6464C232.889 33.9613 231.651 33.5145 230.01 33.306C229.056 33.1868 227.49 33.1273 225.312 33.1273C221.315 33.1273 218.265 32.3974 216.163 30.9378C214.06 29.4782 213.008 27.3335 213.008 24.5036C213.008 22.7163 213.538 21.0184 214.597 19.4098C215.655 17.8013 217.11 16.5204 218.959 15.5672C220.868 14.5544 222.986 14.048 225.312 14.048C227.937 14.048 230.309 14.4501 232.427 15.2544C234.694 16.1182 236.796 17.4736 238.735 19.3205L235.693 22.895C233.873 21.4354 232.218 20.4152 230.726 19.8343C229.235 19.2534 227.43 18.963 225.312 18.963C224.089 18.963 222.949 19.2162 221.89 19.7226C220.831 20.229 219.988 20.9067 219.362 21.7556C218.735 22.6046 218.422 23.5057 218.422 24.4589C218.422 27.0207 220.793 28.3016 225.536 28.3016C229.324 28.3016 232.322 28.6888 234.529 29.4633C236.617 30.208 238.109 31.34 239.004 32.8592C239.809 34.1996 240.212 35.9869 240.212 38.221Z" fill="#FCFCFE"/>
<path d="M0.107677 33.7447C0.0372912 33.5742 0.000723496 33.3916 1.30876e-06 33.2071V1.46631C-0.000256397 1.27368 0.0375465 1.08289 0.111244 0.904876C0.184942 0.726858 0.293086 0.565111 0.429482 0.4289C0.565877 0.292689 0.727844 0.184692 0.906102 0.111094C1.08436 0.0374957 1.27541 -0.00025605 1.4683 1.30699e-06H12.9896C13.3787 0.00112025 13.7516 0.155713 14.0272 0.43012L24.1584 10.5477C24.295 10.6836 24.4033 10.8451 24.4772 11.0229C24.5511 11.2007 24.5891 11.3913 24.5891 11.5839C24.5891 11.7764 24.5511 11.967 24.4772 12.1448C24.4033 12.3226 24.295 12.4841 24.1584 12.6201L2.5059 34.2433C2.33291 34.4124 2.12088 34.5364 1.88853 34.6044C1.65618 34.6723 1.41066 34.6821 1.17363 34.6328C0.936607 34.5835 0.715376 34.4767 0.52947 34.3219C0.343565 34.167 0.198704 33.9688 0.107677 33.7447Z" fill="#00ACC1"/>
<path d="M57.7531 1.46631V12.972C57.7475 13.1623 57.7112 13.3504 57.6455 13.5292C57.568 13.7072 57.4585 13.8695 57.3224 14.0082L47.1912 24.1257C46.915 24.3986 46.5421 24.5517 46.1536 24.5517C45.765 24.5517 45.3922 24.3986 45.116 24.1257L23.4634 2.50251C23.2956 2.33016 23.1722 2.1196 23.104 1.889C23.0359 1.6584 23.0249 1.4147 23.0722 1.17893C23.1194 0.943167 23.2234 0.722422 23.3751 0.535759C23.5269 0.349096 23.7218 0.202123 23.9432 0.107531C24.1221 0.0416609 24.3105 0.00534195 24.5011 1.30699e-06H56.2848C56.4777 -0.00025605 56.6688 0.0374957 56.847 0.111094C57.0253 0.184692 57.1873 0.292689 57.3237 0.4289C57.4601 0.565111 57.5682 0.726858 57.6419 0.904876C57.7156 1.08289 57.7534 1.27368 57.7531 1.46631Z" fill="#00ACC1"/>
<path d="M57.6455 23.9302C57.7159 24.1008 57.7524 24.2833 57.7531 24.4678V56.2086C57.7534 56.4012 57.7156 56.592 57.6419 56.77C57.5682 56.9481 57.4601 57.1098 57.3237 57.246C57.1873 57.3822 57.0253 57.4902 56.847 57.5638C56.6688 57.6374 56.4777 57.6752 56.2848 57.6749H44.7636C44.3745 57.6738 44.0015 57.5192 43.726 57.2448L33.5947 47.1272C33.4582 46.9913 33.3499 46.8298 33.276 46.652C33.202 46.4742 33.164 46.2836 33.164 46.091C33.164 45.8985 33.202 45.7079 33.276 45.5301C33.3499 45.3523 33.4582 45.1908 33.5947 45.0548L55.2472 23.4316C55.4202 23.2625 55.6323 23.1385 55.8646 23.0706C56.097 23.0026 56.3425 22.9929 56.5795 23.0421C56.8165 23.0914 57.0378 23.1982 57.2237 23.3531C57.4096 23.508 57.5544 23.7062 57.6455 23.9302Z" fill="#00ACC1"/>
<path d="M16.3177 27.8013L27.8389 16.2956C28.1154 16.0231 28.4882 15.8704 28.8765 15.8704C29.2649 15.8704 29.6377 16.0231 29.9141 16.2956L41.4354 27.8013C41.7082 28.0773 41.8612 28.4496 41.8612 28.8374C41.8612 29.2253 41.7082 29.5976 41.4354 29.8736L29.9141 41.3793C29.6365 41.6495 29.2642 41.8007 28.8765 41.8007C28.4889 41.8007 28.1166 41.6495 27.8389 41.3793L16.3177 29.8736C16.0449 29.5976 15.8919 29.2253 15.8919 28.8374C15.8919 28.4496 16.0449 28.0773 16.3177 27.8013Z" fill="#00ACC1"/>
<path d="M34.6127 55.671C34.6987 55.893 34.7295 56.1324 34.7025 56.3689C34.6756 56.6054 34.5916 56.8318 34.4579 57.0288C34.3241 57.2258 34.1446 57.3875 33.9346 57.5C33.7246 57.6125 33.4904 57.6726 33.2521 57.675H1.4683C1.27541 57.6752 1.08436 57.6375 0.906102 57.5639C0.727844 57.4903 0.565877 57.3823 0.429482 57.2461C0.293086 57.1099 0.184942 56.9481 0.111244 56.7701C0.0375465 56.5921 -0.000256397 56.4013 1.30876e-06 56.2086V44.703C0.0056448 44.5127 0.0420039 44.3245 0.107677 44.1458C0.185174 43.9678 0.294655 43.8054 0.430703 43.6668L10.562 33.5492C10.8429 33.2855 11.214 33.1387 11.5996 33.1387C11.9852 33.1387 12.3562 33.2855 12.6372 33.5492L34.2897 55.1725C34.4356 55.3106 34.5463 55.4815 34.6127 55.671Z" fill="#00ACC1"/>
<path d="M97.572 48.3639H74.1715V15.031H79.0485V43.4935H97.572V48.3639ZM114.44 29.6867C116.438 27.6016 118.243 25.2781 119.854 22.7163C121.465 20.1545 122.747 17.5928 123.702 15.031H129.295C127.773 18.5758 125.924 21.9716 123.746 25.2185C121.778 28.1675 119.481 31.0719 116.856 33.9315V48.3639H112.024V33.9315C109.399 31.0719 107.102 28.1675 105.133 25.2185C102.956 21.9716 101.107 18.5758 99.5854 15.031H105.178C106.133 17.5928 107.415 20.1545 109.026 22.7163C110.637 25.2781 112.441 27.6016 114.44 29.6867ZM163.925 19.3205L160.793 22.9844C159.57 21.7333 158.109 20.7503 156.409 20.0354C154.708 19.3205 152.919 18.963 151.04 18.963C148.594 18.963 146.364 19.5141 144.35 20.6162C142.337 21.7184 140.764 23.2227 139.63 25.1291C138.467 27.125 137.885 29.3442 137.885 31.7868C137.885 34.1103 138.512 36.255 139.764 38.221C140.957 40.0679 142.561 41.5349 144.574 42.6222C146.588 43.7095 148.758 44.2531 151.084 44.2531C152.725 44.2531 154.298 43.9701 155.805 43.4041C157.311 42.8382 158.661 42.0488 159.854 41.036V34.9592H155.559L153.456 30.1335H164.686V43.0914C162.986 44.9978 160.95 46.4798 158.579 47.5372C156.207 48.5947 153.694 49.1235 151.04 49.1235C147.729 49.1235 144.686 48.3192 141.912 46.7106C139.198 45.1616 137.065 43.0318 135.514 40.3211C133.903 37.5508 133.098 34.5124 133.098 31.2059C133.098 28.0186 133.948 25.0845 135.648 22.4035C137.259 19.8418 139.444 17.8087 142.203 16.3044C144.962 14.8001 147.922 14.048 151.084 14.048C153.56 14.048 155.916 14.5246 158.154 15.4778C160.331 16.3714 162.255 17.6523 163.925 19.3205ZM201.823 31.474C201.823 29.091 201.211 26.9313 199.988 24.9951C198.825 23.1185 197.236 21.6439 195.223 20.5716C193.21 19.4992 191.025 18.963 188.668 18.963C186.222 18.963 183.993 19.5141 181.979 20.6162C179.966 21.7184 178.392 23.2227 177.259 25.1291C176.095 27.125 175.514 29.3442 175.514 31.7868C175.514 34.1103 176.14 36.255 177.393 38.221C178.586 40.0679 180.189 41.5349 182.203 42.6222C184.216 43.7095 186.394 44.2531 188.735 44.2531C191.077 44.2531 193.254 43.6871 195.268 42.5552C197.281 41.4232 198.869 39.904 200.033 37.9976C201.226 36.0018 201.823 33.8273 201.823 31.474ZM206.655 31.7421C206.655 34.9592 205.82 37.9231 204.149 40.6339C202.538 43.2254 200.353 45.2882 197.594 46.8223C194.835 48.3564 191.86 49.1235 188.668 49.1235C185.357 49.1235 182.315 48.3192 179.541 46.7106C176.826 45.1616 174.693 43.0318 173.142 40.3211C171.532 37.5508 170.726 34.5124 170.726 31.2059C170.726 28.0186 171.576 25.0845 173.277 22.4035C174.887 19.8418 177.072 17.8087 179.831 16.3044C182.591 14.8001 185.551 14.048 188.713 14.048C191.964 14.048 194.977 14.8374 197.751 16.4161C200.465 17.9651 202.613 20.0652 204.194 22.7163C205.834 25.4866 206.655 28.4952 206.655 31.7421ZM240.212 38.221C240.212 40.3955 239.556 42.3318 238.243 44.0297C236.96 45.6383 235.193 46.8894 232.941 47.783C230.689 48.6766 228.146 49.1235 225.312 49.1235C222.717 49.1235 220.197 48.5203 217.751 47.3138C215.305 46.1074 213.247 44.4318 211.576 42.2871L215.066 39.0253C217.96 42.5105 221.375 44.2531 225.312 44.2531C227.043 44.2531 228.623 44.0446 230.055 43.6276C231.636 43.1509 232.859 42.4807 233.724 41.6169C234.708 40.6636 235.201 39.5317 235.201 38.221C235.201 36.6422 234.708 35.4507 233.724 34.6464C232.889 33.9613 231.651 33.5145 230.01 33.306C229.056 33.1868 227.49 33.1273 225.312 33.1273C221.315 33.1273 218.265 32.3974 216.163 30.9378C214.06 29.4782 213.008 27.3335 213.008 24.5036C213.008 22.7163 213.538 21.0184 214.597 19.4098C215.655 17.8013 217.11 16.5204 218.959 15.5672C220.868 14.5544 222.986 14.048 225.312 14.048C227.937 14.048 230.309 14.4501 232.427 15.2544C234.694 16.1182 236.796 17.4736 238.735 19.3205L235.693 22.895C233.873 21.4354 232.218 20.4152 230.726 19.8343C229.235 19.2534 227.43 18.963 225.312 18.963C224.089 18.963 222.949 19.2162 221.89 19.7226C220.831 20.229 219.988 20.9067 219.362 21.7556C218.735 22.6046 218.422 23.5057 218.422 24.4589C218.422 27.0207 220.793 28.3016 225.536 28.3016C229.324 28.3016 232.322 28.6888 234.529 29.4633C236.617 30.208 238.109 31.34 239.004 32.8592C239.809 34.1996 240.212 35.9869 240.212 38.221Z" fill="#1F2937"/>
</svg>
